<?xml version="1.0" encoding="utf-8"?>
<svg version="1.1" xmlns:xlink="http://www.w3.org/1999/xlink" width="20px" height="20px" xmlns="http://www.w3.org/2000/svg">
  <g transform="matrix(1 0 0 1 -338 -292 )">
    <path d="M 5.41914191419142 5.41914191419142  C 5.74917491749175 5.08910891089109  5.91419141914191 4.69086908690869  5.91419141914191 4.22442244224422  C 5.91419141914191 3.75797579757976  5.74917491749175 3.35973597359736  5.41914191419142 3.02970297029703  C 5.08910891089109 2.6996699669967  4.69086908690869 2.53465346534653  4.22442244224422 2.53465346534653  C 3.75797579757976 2.53465346534653  3.35973597359736 2.6996699669967  3.02970297029703 3.02970297029703  C 2.6996699669967 3.35973597359736  2.53465346534653 3.75797579757976  2.53465346534653 4.22442244224422  C 2.53465346534653 4.69086908690869  2.6996699669967 5.08910891089109  3.02970297029703 5.41914191419142  C 3.35973597359736 5.74917491749175  3.75797579757976 5.91419141914191  4.22442244224422 5.91419141914191  C 4.69086908690869 5.91419141914191  5.08910891089109 5.74917491749175  5.41914191419142 5.41914191419142  Z M 19.5115511551155 10.6270627062706  C 19.8371837183718 10.970297029703  20 11.3707370737074  20 11.8283828382838  C 20 12.2948294829483  19.8371837183718 12.6908690869087  19.5115511551155 13.016501650165  L 13.029702970297 19.5115511551155  C 12.6864686468647 19.8371837183718  12.2860286028603 20  11.8283828382838 20  C 11.3619361936194 20  10.965896589659 19.8371837183718  10.6402640264026 19.5115511551155  L 1.2013201320132 10.0594059405941  C 0.866886688668867 9.73377337733773  0.583058305830583 9.28932893289329  0.34983498349835 8.72607260726073  C 0.116611661166117 8.16281628162816  0 7.64796479647965  0 7.18151815181518  L 0 1.68976897689769  C 0 1.23212321232123  0.167216721672167 0.836083608360836  0.501650165016502 0.501650165016501  C 0.836083608360836 0.167216721672165  1.23212321232123 0  1.68976897689769 0  L 7.18151815181518 0  C 7.64796479647965 0  8.16281628162816 0.116611661166115  8.72607260726073 0.349834983498349  C 9.28932893289329 0.583058305830582  9.73817381738174 0.866886688668864  10.0726072607261 1.2013201320132  L 19.5115511551155 10.6270627062706  Z " fill-rule="nonzero" fill="#ffffff" stroke="none" transform="matrix(1 0 0 1 338 292 )" />
  </g>
</svg>