<?xml version="1.0" encoding="utf-8"?>
<svg version="1.1" xmlns:xlink="http://www.w3.org/1999/xlink" width="26px" height="25px" xmlns="http://www.w3.org/2000/svg">
  <g transform="matrix(1 0 0 1 -379 -539 )">
    <path d="M 11.9881164587047 8.16582914572864  C 12.5648643295702 7.57956448911223  12.853238265003 6.86767169179229  12.853238265003 6.03015075376885  C 12.853238265003 5.19262981574539  12.5648643295702 4.48073701842546  11.9881164587047 3.89447236180905  C 11.4113685878392 3.30820770519263  10.7110318875025 3.01507537688442  9.88710635769459 3.01507537688442  C 9.06318082788671 3.01507537688442  8.36284412755001 3.30820770519263  7.78609625668449 3.89447236180905  C 7.20934838581898 4.48073701842546  6.92097445038621 5.19262981574539  6.92097445038621 6.03015075376885  C 6.92097445038621 6.46984924623115  7.0188156070509 6.90431323283082  7.21449792038027 7.33354271356784  C 6.79223608635373 7.13463149078727  6.3648247177659 7.03517587939699  5.93226381461676 7.03517587939699  C 5.10833828480887 7.03517587939699  4.40800158447217 7.32830820770519  3.83125371360665 7.91457286432161  C 3.25450584274114 8.50083752093802  2.96613190730838 9.21273031825796  2.96613190730838 10.0502512562814  C 2.96613190730838 10.8877721943049  3.25450584274114 11.5996649916248  3.83125371360665 12.1859296482412  C 4.40800158447217 12.7721943048576  5.10833828480887 13.0653266331658  5.93226381461676 13.0653266331658  C 6.75618934442464 13.0653266331658  7.45652604476134 12.7721943048576  8.03327391562686 12.1859296482412  C 8.61002178649237 11.5996649916248  8.89839572192513 10.8877721943049  8.89839572192513 10.0502512562814  C 8.89839572192513 9.61055276381909  8.80055456526045 9.17608877721943  8.60487225193108 8.74685929648241  C 9.02713408595762 8.94577051926298  9.45454545454546 9.04522613065327  9.88710635769459 9.04522613065327  C 10.7110318875025 9.04522613065327  11.4113685878392 8.75209380234506  11.9881164587047 8.16582914572864  Z M 25.5597147950089 16.4415829145729  C 25.853238265003 16.7870603015075  26 17.001675041876  26 17.0854271356784  C 26 17.2634003350084  25.7476728064963 17.608877721943  25.243018419489 18.1218592964824  C 24.7383640324817 18.6348408710218  24.3984947514359 18.8913316582915  24.2234105763518 18.8913316582915  C 24.1307189542484 18.8913316582915  23.9839572192513 18.8075795644891  23.7831253713607 18.6400753768844  C 23.58229352347 18.4725711892797  23.3943355119826 18.2998324958124  23.2192513368984 18.1218592964824  C 23.0441671618142 17.9438860971524  22.8459100812042 17.7345058626466  22.6244800950683 17.4937185929648  C 22.4030501089325 17.2529313232831  22.2768865121806 17.1168341708543  22.2459893048128 17.0854271356784  L 20.7629233511586 18.5929648241206  L 24.1616161616162 22.0477386934673  C 24.4499900970489 22.3408710217755  24.5941770647653 22.6968174204355  24.5941770647653 23.1155778894472  C 24.5941770647653 23.5552763819095  24.3933452168746 23.9792713567839  23.9916815210933 24.3875628140704  C 23.5900178253119 24.7958542713568  23.1729055258467 25  22.7403446226976 25  C 22.3283818577936 25  21.9782135076253 24.8534338358459  21.6898395721925 24.5603015075377  L 11.3238265002971 14.0232412060302  C 9.51119033471975 15.3946817420436  7.63161021984551 16.0804020100503  5.68508615567439 16.0804020100503  C 4.00633788869083 16.0804020100503  2.63913646266588 15.543865159129  1.58348187759952 14.4707914572864  C 0.527827292533175 13.3977177554439  0 12.0079564489112  0 10.3015075376884  C 0 8.62646566164154  0.489205783323431 6.98806532663317  1.46761734997029 5.38630653266332  C 2.44602891661715 3.78454773869347  3.72311348781937 2.48639028475712  5.29887106357695 1.49183417085427  C 6.87462863933452 0.497278056951422  8.48643295702119 0  10.134284016637 0  C 11.8130322836205 0  13.1802337096455 0.536536850921271  14.2358882947118 1.60961055276382  C 15.2915428797782 2.68268425460636  15.8193701723114 4.07244556113903  15.8193701723114 5.77889447236181  C 15.8193701723114 7.75753768844221  15.1447811447811 9.66813232830821  13.7956030897207 11.5106783919598  L 19.2798573975045 17.0854271356784  L 20.7629233511586 15.5778894472362  C 20.7320261437909 15.5464824120603  20.5981382451971 15.4182370184255  20.3612596553773 15.1931532663317  C 20.1243810655575 14.9680695142379  19.9183996831056 14.766541038526  19.7433155080214 14.588567839196  C 19.5682313329372 14.410594639866  19.3982966924143 14.2195351758794  19.2335115864528 14.0153894472362  C 19.0687264804912 13.811243718593  18.9863339275104 13.6620603015075  18.9863339275104 13.5678391959799  C 18.9863339275104 13.3898659966499  19.2386611210141 13.0443886097152  19.7433155080214 12.5314070351759  C 20.2479698950287 12.0184254606365  20.5878391760745 11.7619346733668  20.7629233511586 11.7619346733668  C 20.8968112497524 11.7619346733668  21.0152505446623 11.8142797319933  21.1182412358883 11.9189698492462  C 21.1800356506239 11.981783919598  21.4169142404437 12.2147194304858  21.8288770053476 12.6177763819095  C 22.2408397702515 13.0208333333333  22.6631016042781 13.4369765494137  23.0956625074272 13.8662060301508  C 23.5282234105764 14.2954355108878  23.9736581501287 14.7456030150754  24.4319667260844 15.2167085427136  C 24.89027530204 15.6878140703518  25.2661913250149 16.0961055276382  25.5597147950089 16.4415829145729  Z " fill-rule="nonzero" fill="#000000" stroke="none" transform="matrix(1 0 0 1 379 539 )" />
  </g>
</svg>